<svg id="Layer_1" data-name="Layer 1" xmlns="http://www.w3.org/2000/svg" viewBox="0 0 260 260"><title>Generator</title><circle cx="130" cy="130" r="127.5" style="fill:#e7eef8"/><path d="M960,415a125,125,0,1,1-88.39,36.61A124.18,124.18,0,0,1,960,415m0-5a130,130,0,1,0,130,130A130,130,0,0,0,960,410Z" transform="translate(-830 -410)"/><path d="M861.5,555.5c31.66-81.63,49.2-95.67,59.29-94,12.62,2.09,14.34,28.86,40.82,88,19.46,43.46,31.1,68.8,45.68,69,23.72.33,41.81-66.07,44.71-77" transform="translate(-830 -410)" style="fill:#e7eef8;stroke:#000;stroke-miterlimit:10;stroke-width:5px"/></svg>