<svg id="Layer_1" data-name="Layer 1" xmlns="http://www.w3.org/2000/svg" viewBox="0 0 86.97 200"><title>Transformer</title><path d="M100,2" transform="translate(-56.76 0)" style="fill:none;stroke:#00c8ff;stroke-miterlimit:10"/><path d="M57,2.66C79.43-.08,97,14,97,26.71s-17.57,26.79-40,24" transform="translate(-56.76 0)" style="fill:none;stroke:#00c8ff;stroke-miterlimit:10;stroke-width:4px"/><path d="M57.48,51.41c22.43-2.73,40,11.36,40,24.06s-17.57,26.78-40,24" transform="translate(-56.76 0)" style="fill:none;stroke:#00c8ff;stroke-miterlimit:10;stroke-width:4px"/><path d="M57.48,100.48c22.43-2.73,40,11.36,40,24s-17.57,26.79-40,24.06" transform="translate(-56.76 0)" style="fill:none;stroke:#00c8ff;stroke-miterlimit:10;stroke-width:4px"/><path d="M57.48,149.55c22.43-2.73,40,11.36,40,24s-17.57,26.79-40,24.06" transform="translate(-56.76 0)" style="fill:none;stroke:#00c8ff;stroke-miterlimit:10;stroke-width:4px"/><path d="M143.48,2.34c-22.43-2.73-40,11.36-40,24.06s17.57,26.78,40,24.05" transform="translate(-56.76 0)" style="fill:none;stroke:#00c8ff;stroke-miterlimit:10;stroke-width:4px"/><path d="M142.92,51.41c-22.43-2.73-40,11.36-40,24.06s17.57,26.78,40,24" transform="translate(-56.76 0)" style="fill:none;stroke:#00c8ff;stroke-miterlimit:10;stroke-width:4px"/><path d="M142.92,100c-22.43-2.74-40,11.36-40,24s17.57,26.79,40,24" transform="translate(-56.76 0)" style="fill:none;stroke:#00c8ff;stroke-miterlimit:10;stroke-width:4px"/><path d="M142.92,148.94c-22.43-2.74-40,11.36-40,24.05s17.57,26.79,40,24" transform="translate(-56.76 0)" style="fill:none;stroke:#00c8ff;stroke-miterlimit:10;stroke-width:4px"/></svg>